<?xml version="1.0" standalone="no"?>
<!DOCTYPE svg PUBLIC "-//W3C//DTD SVG 1.1//EN"
"http://www.w3.org/Graphics/SVG/1.1/DTD/svg11.dtd">

<svg width="586" height="1002" view_box="0 0 586 1002"
xmlns="http://www.w3.org/2000/svg"
xmlns:link="http://www.w3.org/1999/xlink">\n\n<desc>Généré par Mocodo 2.3.7 le Thu, 21 May 2020 05:32:06</desc>

<rect id="frame" x="0" y="0" width="586" height="1002" fill="#f5f5f5" stroke="none" stroke-width="0"/>

<!-- Association CAN GET -->
<line x1="426" y1="682" x2="302" y2="682" stroke="#bf812d" stroke-width="2"/>
<text x="343" y="674.0" fill="#01665e" font-family="Verdana" font-size="12">1,1</text>
<line x1="53" y1="539" x2="302" y2="682" stroke="#bf812d" stroke-width="2"/>
<text x="102" y="560.7297706" fill="#01665e" font-family="Verdana" font-size="12">0,N</text>
<g id="association-CAN GET">
	<path d="M 323 657 a 14 14 90 0 1 14 14 V 682 h -70 V 671 a 14 14 90 0 1 14 -14" fill="#dfc27d" stroke="#dfc27d" stroke-width="0"/>
	<path d="M 337 682.0 v 11 a 14 14 90 0 1 -14 14 H 281 a 14 14 90 0 1 -14 -14 V 682.0 H 70" fill="#f6e8c3" stroke="#f6e8c3" stroke-width="0"/>
	<rect x="267" y="657" width="70" height="50" fill="none" rx="14" stroke="#bf812d" stroke-width="2"/>
	<line x1="267" y1="682" x2="337" y2="682" stroke="#bf812d" stroke-width="1"/>
	<text x="274" y="674.7" fill="#000000" font-family="Verdana" font-size="12">CAN GET</text>
</g>

<!-- Association BELONGS TO -->
<line x1="189" y1="102" x2="189" y2="245" stroke="#bf812d" stroke-width="2"/>
<text x="194.0" y="195" fill="#01665e" font-family="Verdana" font-size="12">0,N</text>
<line x1="189" y1="346" x2="189" y2="245" stroke="#bf812d" stroke-width="2"/>
<text x="194.0" y="287" fill="#01665e" font-family="Verdana" font-size="12">1,1</text>
<g id="association-BELONGS TO">
	<path d="M 223 220 a 14 14 90 0 1 14 14 V 245 h -96 V 234 a 14 14 90 0 1 14 -14" fill="#dfc27d" stroke="#dfc27d" stroke-width="0"/>
	<path d="M 237 245.0 v 11 a 14 14 90 0 1 -14 14 H 155 a 14 14 90 0 1 -14 -14 V 245.0 H 96" fill="#f6e8c3" stroke="#f6e8c3" stroke-width="0"/>
	<rect x="141" y="220" width="96" height="50" fill="none" rx="14" stroke="#bf812d" stroke-width="2"/>
	<line x1="141" y1="245" x2="237" y2="245" stroke="#bf812d" stroke-width="1"/>
	<text x="148" y="237.7" fill="#000000" font-family="Verdana" font-size="12">BELONGS TO</text>
</g>

<!-- Association CAN HAVE -->
<line x1="426" y1="682" x2="426" y2="539" stroke="#bf812d" stroke-width="2"/>
<text x="431.0" y="598" fill="#01665e" font-family="Verdana" font-size="12">1,1</text>
<line x1="302" y1="539" x2="426" y2="539" stroke="#bf812d" stroke-width="2"/>
<text x="359" y="556.0" fill="#01665e" font-family="Verdana" font-size="12">0,N</text>
<g id="association-CAN HAVE">
	<path d="M 451 514 a 14 14 90 0 1 14 14 V 539 h -78 V 528 a 14 14 90 0 1 14 -14" fill="#dfc27d" stroke="#dfc27d" stroke-width="0"/>
	<path d="M 465 539.0 v 11 a 14 14 90 0 1 -14 14 H 401 a 14 14 90 0 1 -14 -14 V 539.0 H 78" fill="#f6e8c3" stroke="#f6e8c3" stroke-width="0"/>
	<rect x="387" y="514" width="78" height="50" fill="none" rx="14" stroke="#bf812d" stroke-width="2"/>
	<line x1="387" y1="539" x2="465" y2="539" stroke="#bf812d" stroke-width="1"/>
	<text x="394" y="531.7" fill="#000000" font-family="Verdana" font-size="12">CAN HAVE</text>
</g>

<!-- Association MAY HAVE -->
<line x1="53" y1="791" x2="53" y2="682" stroke="#bf812d" stroke-width="2"/>
<text x="58.0" y="724" fill="#01665e" font-family="Verdana" font-size="12">1,1</text>
<line x1="53" y1="539" x2="53" y2="682" stroke="#bf812d" stroke-width="2"/>
<text x="26.0" y="607" fill="#01665e" font-family="Verdana" font-size="12">0,N</text>
<g id="association-MAY HAVE">
	<path d="M 78 657 a 14 14 90 0 1 14 14 V 682 h -78 V 671 a 14 14 90 0 1 14 -14" fill="#dfc27d" stroke="#dfc27d" stroke-width="0"/>
	<path d="M 92 682.0 v 11 a 14 14 90 0 1 -14 14 H 28 a 14 14 90 0 1 -14 -14 V 682.0 H 78" fill="#f6e8c3" stroke="#f6e8c3" stroke-width="0"/>
	<rect x="14" y="657" width="78" height="50" fill="none" rx="14" stroke="#bf812d" stroke-width="2"/>
	<line x1="14" y1="682" x2="92" y2="682" stroke="#bf812d" stroke-width="1"/>
	<text x="21" y="674.7" fill="#000000" font-family="Verdana" font-size="12">MAY HAVE</text>
</g>

<!-- Association WHICH CONTAINS -->
<line x1="53" y1="791" x2="189" y2="791" stroke="#bf812d" stroke-width="2"/>
<text x="98" y="808.0" fill="#01665e" font-family="Verdana" font-size="12">1,1</text>
<line x1="426" y1="682" x2="189" y2="791" stroke="#bf812d" stroke-width="2"/>
<text x="343" y="703.81661118" fill="#01665e" font-family="Verdana" font-size="12">1,1</text>
<g id="association-WHICH CONTAINS">
	<path d="M 239 766 a 14 14 90 0 1 14 14 V 791 h -128 V 780 a 14 14 90 0 1 14 -14" fill="#dfc27d" stroke="#dfc27d" stroke-width="0"/>
	<path d="M 253 791.0 v 11 a 14 14 90 0 1 -14 14 H 139 a 14 14 90 0 1 -14 -14 V 791.0 H 128" fill="#f6e8c3" stroke="#f6e8c3" stroke-width="0"/>
	<rect x="125" y="766" width="128" height="50" fill="none" rx="14" stroke="#bf812d" stroke-width="2"/>
	<line x1="125" y1="791" x2="253" y2="791" stroke="#bf812d" stroke-width="1"/>
	<text x="132" y="783.7" fill="#000000" font-family="Verdana" font-size="12">WHICH CONTAINS</text>
</g>

<!-- Association GOT -->
<line x1="189" y1="346" x2="53" y2="346" stroke="#bf812d" stroke-width="2"/>
<text x="123" y="363.0" fill="#01665e" font-family="Verdana" font-size="12">1,1</text>
<line x1="53" y1="539" x2="53" y2="346" stroke="#bf812d" stroke-width="2"/>
<text x="26.0" y="480" fill="#01665e" font-family="Verdana" font-size="12">0,N</text>
<g id="association-GOT">
	<path d="M 60 321 a 14 14 90 0 1 14 14 V 346 h -42 V 335 a 14 14 90 0 1 14 -14" fill="#dfc27d" stroke="#dfc27d" stroke-width="0"/>
	<path d="M 74 346.0 v 11 a 14 14 90 0 1 -14 14 H 46 a 14 14 90 0 1 -14 -14 V 346.0 H 42" fill="#f6e8c3" stroke="#f6e8c3" stroke-width="0"/>
	<rect x="32" y="321" width="42" height="50" fill="none" rx="14" stroke="#bf812d" stroke-width="2"/>
	<line x1="32" y1="346" x2="74" y2="346" stroke="#bf812d" stroke-width="1"/>
	<text x="39" y="338.7" fill="#000000" font-family="Verdana" font-size="12">GOT</text>
</g>

<!-- Association HAS -->
<line x1="302" y1="102" x2="302" y2="245" stroke="#bf812d" stroke-width="2"/>
<text x="307.0" y="212" fill="#01665e" font-family="Verdana" font-size="12">1,1</text>
<line x1="302" y1="346" x2="302" y2="245" stroke="#bf812d" stroke-width="2"/>
<text x="307.0" y="296" fill="#01665e" font-family="Verdana" font-size="12">1,1</text>
<g id="association-HAS">
	<path d="M 308 220 a 14 14 90 0 1 14 14 V 245 h -40 V 234 a 14 14 90 0 1 14 -14" fill="#dfc27d" stroke="#dfc27d" stroke-width="0"/>
	<path d="M 322 245.0 v 11 a 14 14 90 0 1 -14 14 H 296 a 14 14 90 0 1 -14 -14 V 245.0 H 40" fill="#f6e8c3" stroke="#f6e8c3" stroke-width="0"/>
	<rect x="282" y="220" width="40" height="50" fill="none" rx="14" stroke="#bf812d" stroke-width="2"/>
	<line x1="282" y1="245" x2="322" y2="245" stroke="#bf812d" stroke-width="1"/>
	<text x="289" y="237.7" fill="#000000" font-family="Verdana" font-size="12">HAS</text>
</g>

<!-- Association IS NECESSARILY -->
<line x1="302" y1="346" x2="302" y2="447" stroke="#bf812d" stroke-width="2"/>
<text x="307.0" y="405" fill="#01665e" font-family="Verdana" font-size="12">1,1</text>
<line x1="53" y1="539" x2="302" y2="447" stroke="#bf812d" stroke-width="2"/>
<text x="102" y="536.854065612" fill="#01665e" font-family="Verdana" font-size="12">1,1</text>
<line x1="302" y1="539" x2="302" y2="447" stroke="#bf812d" stroke-width="2"/>
<text x="307.0" y="489" fill="#01665e" font-family="Verdana" font-size="12">1,1</text>
<line x1="537" y1="539" x2="302" y2="447" stroke="#bf812d" stroke-width="2"/>
<text x="471" y="537.276105546" fill="#01665e" font-family="Verdana" font-size="12">1,1</text>
<g id="association-IS NECESSARILY">
	<path d="M 347 422 a 14 14 90 0 1 14 14 V 447 h -118 V 436 a 14 14 90 0 1 14 -14" fill="#dfc27d" stroke="#dfc27d" stroke-width="0"/>
	<path d="M 361 447.0 v 11 a 14 14 90 0 1 -14 14 H 257 a 14 14 90 0 1 -14 -14 V 447.0 H 118" fill="#f6e8c3" stroke="#f6e8c3" stroke-width="0"/>
	<rect x="243" y="422" width="118" height="50" fill="none" rx="14" stroke="#bf812d" stroke-width="2"/>
	<line x1="243" y1="447" x2="361" y2="447" stroke="#bf812d" stroke-width="1"/>
	<text x="250" y="439.7" fill="#000000" font-family="Verdana" font-size="12">IS NECESSARILY</text>
</g>

<!-- Entity RATING -->
<g id="entity-RATING">
	<g id="frame-RATING">
		<rect x="13" y="732" width="80" height="25" fill="#80cdc1" stroke="#80cdc1" stroke-width="0"/>
		<rect x="13" y="757.0" width="80" height="93" fill="#c7eae5" stroke="#c7eae5" stroke-width="0"/>
		<rect x="13" y="732" width="80" height="118" fill="none" stroke="#35978f" stroke-width="2"/>
		<line x1="13" y1="757" x2="93" y2="757" stroke="#35978f" stroke-width="1"/>
	</g>
	<text x="29" y="749.7" fill="#000000" font-family="Verdana" font-size="12">RATING</text>
	<text x="18" y="774.7" fill="#000000" font-family="Verdana" font-size="12">id</text>
	<line x1="18" y1="777" x2="30" y2="777" stroke="#000000" stroke-width="1"/>
	<text x="18" y="791.8" fill="#000000" font-family="Verdana" font-size="12">comment</text>
	<text x="18" y="808.8" fill="#000000" font-family="Verdana" font-size="12">star</text>
	<text x="18" y="825.8" fill="#000000" font-family="Verdana" font-size="12">created_at</text>
	<text x="18" y="842.8" fill="#000000" font-family="Verdana" font-size="12">updated_at</text>
</g>

<!-- Entity API_USER -->
<g id="entity-API_USER">
	<g id="frame-API_USER">
		<rect x="262" y="858" width="80" height="25" fill="#80cdc1" stroke="#80cdc1" stroke-width="0"/>
		<rect x="262" y="883.0" width="80" height="93" fill="#c7eae5" stroke="#c7eae5" stroke-width="0"/>
		<rect x="262" y="858" width="80" height="118" fill="none" stroke="#35978f" stroke-width="2"/>
		<line x1="262" y1="883" x2="342" y2="883" stroke="#35978f" stroke-width="1"/>
	</g>
	<text x="271" y="875.7" fill="#000000" font-family="Verdana" font-size="12">API_USER</text>
	<text x="267" y="900.7" fill="#000000" font-family="Verdana" font-size="12">id</text>
	<line x1="267" y1="903" x2="279" y2="903" stroke="#000000" stroke-width="1"/>
	<text x="267" y="917.8" fill="#000000" font-family="Verdana" font-size="12">email</text>
	<text x="267" y="934.8" fill="#000000" font-family="Verdana" font-size="12">password</text>
	<text x="267" y="951.8" fill="#000000" font-family="Verdana" font-size="12">created_at</text>
	<text x="267" y="968.8" fill="#000000" font-family="Verdana" font-size="12">updated_at</text>
</g>

<!-- Entity SERVICE -->
<g id="entity-SERVICE">
	<g id="frame-SERVICE">
		<rect x="149" y="26" width="80" height="25" fill="#80cdc1" stroke="#80cdc1" stroke-width="0"/>
		<rect x="149" y="51.0" width="80" height="127" fill="#c7eae5" stroke="#c7eae5" stroke-width="0"/>
		<rect x="149" y="26" width="80" height="152" fill="none" stroke="#35978f" stroke-width="2"/>
		<line x1="149" y1="51" x2="229" y2="51" stroke="#35978f" stroke-width="1"/>
	</g>
	<text x="162" y="43.7" fill="#000000" font-family="Verdana" font-size="12">SERVICE</text>
	<text x="154" y="68.7" fill="#000000" font-family="Verdana" font-size="12">id</text>
	<line x1="154" y1="71" x2="166" y2="71" stroke="#000000" stroke-width="1"/>
	<text x="154" y="85.7" fill="#000000" font-family="Verdana" font-size="12">parent_id</text>
	<text x="154" y="102.8" fill="#000000" font-family="Verdana" font-size="12">title</text>
	<text x="154" y="119.8" fill="#000000" font-family="Verdana" font-size="12">description</text>
	<text x="154" y="136.8" fill="#000000" font-family="Verdana" font-size="12">image</text>
	<text x="154" y="153.8" fill="#000000" font-family="Verdana" font-size="12">created_at</text>
	<text x="154" y="170.8" fill="#000000" font-family="Verdana" font-size="12">updated_at</text>
</g>

<!-- Entity ADMIN -->
<g id="entity-ADMIN">
	<g id="frame-ADMIN">
		<rect x="497" y="497" width="80" height="25" fill="#80cdc1" stroke="#80cdc1" stroke-width="0"/>
		<rect x="497" y="522.0" width="80" height="59" fill="#c7eae5" stroke="#c7eae5" stroke-width="0"/>
		<rect x="497" y="497" width="80" height="84" fill="none" stroke="#35978f" stroke-width="2"/>
		<line x1="497" y1="522" x2="577" y2="522" stroke="#35978f" stroke-width="1"/>
	</g>
	<text x="515" y="514.7" fill="#000000" font-family="Verdana" font-size="12">ADMIN</text>
	<text x="502" y="539.8" fill="#000000" font-family="Verdana" font-size="12">id</text>
	<line x1="502" y1="542" x2="514" y2="542" stroke="#000000" stroke-width="1"/>
	<text x="502" y="556.8" fill="#000000" font-family="Verdana" font-size="12">created_at</text>
	<text x="502" y="573.8" fill="#000000" font-family="Verdana" font-size="12">updated_at</text>
</g>

<!-- Entity REQUEST -->
<g id="entity-REQUEST">
	<g id="frame-REQUEST">
		<rect x="369" y="606" width="114" height="25" fill="#80cdc1" stroke="#80cdc1" stroke-width="0"/>
		<rect x="369" y="631.0" width="114" height="127" fill="#c7eae5" stroke="#c7eae5" stroke-width="0"/>
		<rect x="369" y="606" width="114" height="152" fill="none" stroke="#35978f" stroke-width="2"/>
		<line x1="369" y1="631" x2="483" y2="631" stroke="#35978f" stroke-width="1"/>
	</g>
	<text x="397" y="623.7" fill="#000000" font-family="Verdana" font-size="12">REQUEST</text>
	<text x="374" y="648.7" fill="#000000" font-family="Verdana" font-size="12">id</text>
	<line x1="374" y1="651" x2="386" y2="651" stroke="#000000" stroke-width="1"/>
	<text x="374" y="665.7" fill="#000000" font-family="Verdana" font-size="12">body</text>
	<text x="374" y="682.8" fill="#000000" font-family="Verdana" font-size="12">reservation_date</text>
	<text x="374" y="699.8" fill="#000000" font-family="Verdana" font-size="12">reservation_hour</text>
	<text x="374" y="716.8" fill="#000000" font-family="Verdana" font-size="12">status</text>
	<text x="374" y="733.8" fill="#000000" font-family="Verdana" font-size="12">created_at</text>
	<text x="374" y="750.8" fill="#000000" font-family="Verdana" font-size="12">updated_at</text>
</g>

<!-- Entity CONTACT -->
<g id="entity-CONTACT">
	<g id="frame-CONTACT">
		<rect x="149" y="841" width="80" height="25" fill="#80cdc1" stroke="#80cdc1" stroke-width="0"/>
		<rect x="149" y="866.0" width="80" height="127" fill="#c7eae5" stroke="#c7eae5" stroke-width="0"/>
		<rect x="149" y="841" width="80" height="152" fill="none" stroke="#35978f" stroke-width="2"/>
		<line x1="149" y1="866" x2="229" y2="866" stroke="#35978f" stroke-width="1"/>
	</g>
	<text x="159" y="858.7" fill="#000000" font-family="Verdana" font-size="12">CONTACT</text>
	<text x="154" y="883.7" fill="#000000" font-family="Verdana" font-size="12">id</text>
	<line x1="154" y1="886" x2="166" y2="886" stroke="#000000" stroke-width="1"/>
	<text x="154" y="900.7" fill="#000000" font-family="Verdana" font-size="12">firstname</text>
	<text x="154" y="917.8" fill="#000000" font-family="Verdana" font-size="12">lastname</text>
	<text x="154" y="934.8" fill="#000000" font-family="Verdana" font-size="12">role</text>
	<text x="154" y="951.8" fill="#000000" font-family="Verdana" font-size="12">image</text>
	<text x="154" y="968.8" fill="#000000" font-family="Verdana" font-size="12">created_at</text>
	<text x="154" y="985.8" fill="#000000" font-family="Verdana" font-size="12">updated_at</text>
</g>

<!-- Entity ROLE -->
<g id="entity-ROLE">
	<g id="frame-ROLE">
		<rect x="262" y="304" width="80" height="25" fill="#80cdc1" stroke="#80cdc1" stroke-width="0"/>
		<rect x="262" y="329.0" width="80" height="59" fill="#c7eae5" stroke="#c7eae5" stroke-width="0"/>
		<rect x="262" y="304" width="80" height="84" fill="none" stroke="#35978f" stroke-width="2"/>
		<line x1="262" y1="329" x2="342" y2="329" stroke="#35978f" stroke-width="1"/>
	</g>
	<text x="285" y="321.7" fill="#000000" font-family="Verdana" font-size="12">ROLE</text>
	<text x="267" y="346.8" fill="#000000" font-family="Verdana" font-size="12">id</text>
	<line x1="267" y1="349" x2="279" y2="349" stroke="#000000" stroke-width="1"/>
	<text x="267" y="363.8" fill="#000000" font-family="Verdana" font-size="12">created_at</text>
	<text x="267" y="380.8" fill="#000000" font-family="Verdana" font-size="12">updated_at</text>
</g>

<!-- Entity USER -->
<g id="entity-USER">
	<g id="frame-USER">
		<rect x="261" y="9" width="82" height="25" fill="#80cdc1" stroke="#80cdc1" stroke-width="0"/>
		<rect x="261" y="34.0" width="82" height="161" fill="#c7eae5" stroke="#c7eae5" stroke-width="0"/>
		<rect x="261" y="9" width="82" height="186" fill="none" stroke="#35978f" stroke-width="2"/>
		<line x1="261" y1="34" x2="343" y2="34" stroke="#35978f" stroke-width="1"/>
	</g>
	<text x="285" y="26.7" fill="#000000" font-family="Verdana" font-size="12">USER</text>
	<text x="266" y="51.7" fill="#000000" font-family="Verdana" font-size="12">id</text>
	<line x1="266" y1="54" x2="278" y2="54" stroke="#000000" stroke-width="1"/>
	<text x="266" y="68.7" fill="#000000" font-family="Verdana" font-size="12">firstname</text>
	<text x="266" y="85.7" fill="#000000" font-family="Verdana" font-size="12">lastname</text>
	<text x="266" y="102.8" fill="#000000" font-family="Verdana" font-size="12">email</text>
	<text x="266" y="119.8" fill="#000000" font-family="Verdana" font-size="12">password</text>
	<text x="266" y="136.8" fill="#000000" font-family="Verdana" font-size="12">department</text>
	<text x="266" y="153.8" fill="#000000" font-family="Verdana" font-size="12">image</text>
	<text x="266" y="170.8" fill="#000000" font-family="Verdana" font-size="12">created_at</text>
	<text x="266" y="187.8" fill="#000000" font-family="Verdana" font-size="12">updated_at</text>
</g>

<!-- Entity FRIENDLYUSER -->
<g id="entity-FRIENDLYUSER">
	<g id="frame-FRIENDLYUSER">
		<rect x="250" y="497" width="104" height="25" fill="#80cdc1" stroke="#80cdc1" stroke-width="0"/>
		<rect x="250" y="522.0" width="104" height="59" fill="#c7eae5" stroke="#c7eae5" stroke-width="0"/>
		<rect x="250" y="497" width="104" height="84" fill="none" stroke="#35978f" stroke-width="2"/>
		<line x1="250" y1="522" x2="354" y2="522" stroke="#35978f" stroke-width="1"/>
	</g>
	<text x="255" y="514.7" fill="#000000" font-family="Verdana" font-size="12">FRIENDLYUSER</text>
	<text x="255" y="539.8" fill="#000000" font-family="Verdana" font-size="12">id</text>
	<line x1="255" y1="542" x2="267" y2="542" stroke="#000000" stroke-width="1"/>
	<text x="255" y="556.8" fill="#000000" font-family="Verdana" font-size="12">created_at</text>
	<text x="255" y="573.8" fill="#000000" font-family="Verdana" font-size="12">updated_at</text>
</g>

<!-- Entity SKILL -->
<g id="entity-SKILL">
	<g id="frame-SKILL">
		<rect x="149" y="295" width="80" height="25" fill="#80cdc1" stroke="#80cdc1" stroke-width="0"/>
		<rect x="149" y="320.0" width="80" height="77" fill="#c7eae5" stroke="#c7eae5" stroke-width="0"/>
		<rect x="149" y="295" width="80" height="102" fill="none" stroke="#35978f" stroke-width="2"/>
		<line x1="149" y1="320" x2="229" y2="320" stroke="#35978f" stroke-width="1"/>
	</g>
	<text x="171" y="312.7" fill="#000000" font-family="Verdana" font-size="12">SKILL</text>
	<text x="154" y="337.7" fill="#000000" font-family="Verdana" font-size="12">id</text>
	<line x1="154" y1="340" x2="166" y2="340" stroke="#000000" stroke-width="1"/>
	<text x="154" y="354.8" fill="#000000" font-family="Verdana" font-size="12">description</text>
	<text x="154" y="371.8" fill="#000000" font-family="Verdana" font-size="12">created_at</text>
	<text x="154" y="388.8" fill="#000000" font-family="Verdana" font-size="12">updated_at</text>
</g>

<!-- Entity JOBWORKER -->
<g id="entity-JOBWORKER">
	<g id="frame-JOBWORKER">
		<rect x="9" y="488" width="88" height="25" fill="#80cdc1" stroke="#80cdc1" stroke-width="0"/>
		<rect x="9" y="513.0" width="88" height="77" fill="#c7eae5" stroke="#c7eae5" stroke-width="0"/>
		<rect x="9" y="488" width="88" height="102" fill="none" stroke="#35978f" stroke-width="2"/>
		<line x1="9" y1="513" x2="97" y2="513" stroke="#35978f" stroke-width="1"/>
	</g>
	<text x="14" y="505.7" fill="#000000" font-family="Verdana" font-size="12">JOBWORKER</text>
	<text x="14" y="530.7" fill="#000000" font-family="Verdana" font-size="12">id</text>
	<line x1="14" y1="533" x2="26" y2="533" stroke="#000000" stroke-width="1"/>
	<text x="14" y="547.8" fill="#000000" font-family="Verdana" font-size="12">about</text>
	<text x="14" y="564.8" fill="#000000" font-family="Verdana" font-size="12">created_at</text>
	<text x="14" y="581.8" fill="#000000" font-family="Verdana" font-size="12">updated_at</text>
</g>
</svg>